<?xml version="1.0" encoding="iso-8859-1"?>
<!-- Uploaded to: SVG Repo, www.svgrepo.com, Generator: SVG Repo Mixer Tools -->
<svg height="800px" width="800px" version="1.1" id="Layer_1" xmlns="http://www.w3.org/2000/svg" xmlns:xlink="http://www.w3.org/1999/xlink" 
	 viewBox="0 0 482.653 482.653" xml:space="preserve">
<g>
	<path style="fill:#005ECE;" d="M0.025,140.248l15.308,36.955l29.938-12.401c-7.809-10.712-13.196-23.294-15.347-36.939
		L0.025,140.248z"/>
	<path style="fill:#005ECE;" d="M51.777,213.647l36.955,15.308l12.386-29.903c-13.646-2.151-26.228-7.538-36.94-15.344
		L51.777,213.647z"/>
	<path style="fill:#005ECE;" d="M88.732,0L51.777,15.308l12.401,29.938c10.712-7.808,23.294-13.194,36.939-15.345L88.732,0z"/>
	<path style="fill:#005ECE;" d="M15.333,51.752L0.025,88.707l29.9,12.385c2.151-13.646,7.538-26.228,15.346-36.939L15.333,51.752z"
		/>
	<path style="fill:#005ECE;" d="M160.126,114.481c0,25.15-20.47,45.62-45.62,45.62v40c4.551,0,9.02-0.361,13.381-1.048
		l12.386,29.902l36.955-15.308l-12.402-29.94c7.242-5.279,13.627-11.664,18.906-18.906l29.94,12.402l15.308-36.955l-29.902-12.386
		c0.687-4.361,1.048-8.83,1.048-13.381c0-4.554-0.361-9.024-1.049-13.387l29.903-12.386l-15.308-36.955l-29.94,12.401
		c-5.279-7.243-11.664-13.628-18.906-18.908l12.401-29.938L140.273,0l-12.385,29.899c-4.362-0.688-8.83-1.048-13.382-1.048v40
		C139.656,68.851,160.126,89.321,160.126,114.481z"/>
	<path style="fill:#2488FF;" d="M114.506,160.101c-25.16,0-45.63-20.47-45.63-45.62c0-25.16,20.47-45.63,45.63-45.63v-40
		c-4.554,0-9.025,0.361-13.389,1.049c-13.646,2.151-26.228,7.538-36.939,15.345C56.935,50.524,50.55,56.91,45.27,64.153
		c-7.807,10.712-13.194,23.294-15.346,36.939c-0.688,4.364-1.049,8.835-1.049,13.389c0,4.552,0.361,9.021,1.048,13.382
		c2.151,13.645,7.538,26.227,15.347,36.939c5.279,7.242,11.665,13.627,18.908,18.906c10.712,7.807,23.294,13.193,36.94,15.344
		c4.363,0.688,8.834,1.049,13.388,1.049V160.101z"/>
	<path style="fill:#00E7F0;" d="M471.628,169.873l-12.06-25.91l-71.52,71.51l-9.73-9.73l-261.16,261.16
		c10.15,10.16,23.65,15.75,38.01,15.75c14.37,0,27.87-5.6,38.03-15.76l134.31-134.32c5.91,1.91,11.97,3.36,18.11,4.34
		c6.15,0.97,12.36,1.47,18.57,1.47c31.65,0,61.41-12.32,83.78-34.7C483.048,268.603,492.558,214.833,471.628,169.873z"/>
	<path style="fill:#46F8FF;" d="M368.608,196.033l71.51-71.52l-25.91-12.06c-15.53-7.23-32.82-11.05-50.02-11.05
		c-31.65,0-61.41,12.32-83.79,34.7c-31.66,31.67-42.49,78.57-28.9,120.47l-134.29,134.3c-10.16,10.12-15.76,23.61-15.78,37.97
		c-0.02,14.37,5.57,27.89,15.73,38.06l261.16-261.16L368.608,196.033z"/>
</g>
</svg>